<?xml version="1.0" standalone="no"?>
<!DOCTYPE svg PUBLIC "-//W3C//DTD SVG 20010904//EN"
 "http://www.w3.org/TR/2001/REC-SVG-20010904/DTD/svg10.dtd">
<svg version="1.0" xmlns="http://www.w3.org/2000/svg"
 width="500.000000pt" height="500.000000pt" viewBox="0 0 500.000000 500.000000"
 preserveAspectRatio="xMidYMid meet">

<g transform="translate(0.000000,500.000000) scale(0.100000,-0.100000)"
fill="#000000" stroke="none">
<path d="M3100 3230 c0 -7 172 -10 495 -10 323 0 495 3 495 10 0 7 -172 10
-495 10 -323 0 -495 -3 -495 -10z"/>
<path d="M1465 2863 c-55 -86 -108 -169 -118 -185 l-19 -28 81 0 c79 0 81 0
96 30 l16 30 119 0 119 0 18 -30 c17 -29 19 -30 96 -30 63 0 76 3 70 14 -4 7
-57 90 -117 185 l-110 171 -75 0 -76 0 -100 -157z m208 -2 c15 -27 27 -52 27
-55 0 -3 -27 -6 -60 -6 -33 0 -60 3 -60 6 0 10 54 104 60 104 3 0 17 -22 33
-49z"/>
<path d="M2000 2835 l0 -185 80 0 80 0 0 55 0 55 98 0 c176 0 247 38 247 132
0 43 -4 53 -32 78 -47 43 -90 50 -290 50 l-183 0 0 -185z m331 85 c10 -6 19
-19 19 -30 0 -29 -31 -40 -114 -40 l-76 0 0 40 0 40 76 0 c41 0 84 -5 95 -10z"/>
<path d="M2570 2836 l0 -186 80 0 80 0 0 54 0 54 123 4 c99 3 130 8 163 25 88
46 86 165 -3 209 -33 16 -66 19 -240 22 l-203 3 0 -185z m328 88 c28 -8 30
-49 3 -64 -11 -5 -54 -10 -95 -10 l-76 0 0 40 0 40 73 0 c39 0 82 -3 95 -6z"/>
<path d="M3213 2922 l97 -97 0 -88 0 -87 80 0 80 0 0 87 0 88 97 97 98 98 -85
0 -84 0 -53 -52 -53 -52 -53 52 -53 52 -84 0 -85 0 98 -98z"/>
<path d="M1910 2450 c0 -68 1 -70 26 -70 56 0 89 42 72 91 -9 27 -44 49 -78
49 -18 0 -20 -7 -20 -70z m75 34 c24 -25 15 -66 -18 -82 -38 -18 -47 -9 -47
49 0 45 2 49 24 49 14 0 32 -7 41 -16z"/>
<path d="M2090 2450 l0 -70 43 1 42 2 -35 6 c-26 4 -36 12 -38 29 -3 19 1 22
35 23 l38 2 -35 6 c-26 4 -36 12 -38 29 -3 19 1 22 32 22 20 0 36 5 36 10 0 6
-18 10 -40 10 l-40 0 0 -70z"/>
<path d="M2266 2507 c-27 -20 -16 -49 24 -62 24 -8 35 -18 35 -31 0 -23 -39
-31 -62 -12 -14 11 -15 11 -11 -2 3 -9 20 -16 41 -18 28 -2 38 1 47 18 12 23
-1 50 -25 50 -7 0 -23 8 -36 19 -22 18 -22 18 -3 29 13 7 26 7 35 1 23 -14 36
-10 15 6 -24 18 -37 19 -60 2z"/>
<path d="M2436 2456 c-16 -37 -26 -69 -23 -72 3 -3 10 4 17 15 14 28 53 27 74
-1 l17 -23 -7 23 c-3 13 -16 46 -28 74 l-22 50 -28 -66z m43 4 c9 -28 8 -30
-14 -30 -22 0 -23 2 -14 30 6 17 12 30 14 30 2 0 8 -13 14 -30z"/>
<path d="M2597 2513 c-11 -10 -8 -133 3 -133 6 0 10 11 10 25 0 14 4 25 9 25
5 0 16 -11 25 -25 9 -14 22 -25 28 -25 6 0 4 8 -5 18 -19 20 -22 42 -8 42 5 0
13 10 17 22 10 34 -54 76 -79 51z m63 -38 c0 -20 -5 -25 -25 -25 -20 0 -25 5
-25 25 0 20 5 25 25 25 20 0 25 -5 25 -25z"/>
<path d="M2757 2513 c-11 -10 -8 -133 3 -133 6 0 10 11 10 25 0 14 4 25 9 25
5 0 16 -11 25 -25 9 -14 22 -25 28 -25 6 0 4 8 -5 18 -19 20 -22 42 -8 42 5 0
13 10 17 22 10 34 -54 76 -79 51z m63 -38 c0 -20 -5 -25 -25 -25 -20 0 -25 5
-25 25 0 20 5 25 25 25 20 0 25 -5 25 -25z"/>
<path d="M2936 2499 c-33 -26 -34 -68 -3 -97 32 -30 71 -28 96 4 27 35 26 59
-4 89 -30 30 -54 31 -89 4z m82 -11 c21 -21 14 -66 -13 -84 -30 -20 -58 -11
-74 22 -9 22 -9 31 4 50 17 26 62 33 83 12z"/>
<path d="M3262 2453 l-2 -73 33 1 c29 2 30 2 5 6 -26 4 -27 7 -31 71 l-3 67
-2 -72z"/>
<path d="M3419 2507 c-43 -33 -43 -93 0 -116 74 -40 140 56 75 108 -30 24 -52
26 -75 8z m75 -23 c22 -21 20 -50 -4 -74 -24 -24 -38 -25 -68 -4 -24 16 -28
44 -12 75 13 23 62 26 84 3z"/>
<path d="M3695 2489 c4 -19 11 -52 17 -74 l10 -40 20 50 c11 27 21 51 23 53 2
2 12 -21 23 -50 22 -57 23 -55 42 30 15 67 5 81 -11 16 l-13 -49 -21 50 -22
49 -13 -39 c-19 -59 -28 -63 -36 -16 -4 23 -11 44 -16 47 -6 4 -8 -6 -3 -27z"/>
<path d="M3917 2513 c-4 -3 -7 -35 -7 -70 l0 -63 43 2 c36 1 38 2 10 5 -27 4
-33 9 -33 28 0 19 6 24 33 28 l32 4 -32 1 c-28 2 -33 6 -33 27 0 21 5 25 30
25 17 0 30 5 30 10 0 11 -63 14 -73 3z"/>
<path d="M4080 2449 l0 -70 31 3 c37 3 56 27 44 54 -4 11 -7 29 -6 41 2 22
-24 43 -53 43 -13 0 -16 -13 -16 -71z m55 31 c0 -8 -10 -16 -22 -18 -18 -3
-23 2 -23 18 0 16 5 21 23 18 12 -2 22 -10 22 -18z m5 -45 c16 -19 -3 -45 -31
-45 -14 0 -19 7 -19 30 0 23 5 30 19 30 10 0 24 -7 31 -15z"/>
<path d="M3120 2445 l0 -65 33 1 c23 1 26 3 10 6 -21 4 -23 10 -23 64 0 33 -4
59 -10 59 -6 0 -10 -28 -10 -65z"/>
<path d="M800 2450 c0 -7 170 -10 490 -10 320 0 490 3 490 10 0 7 -170 10
-490 10 -320 0 -490 -3 -490 -10z"/>
<path d="M928 2274 c-74 -23 -124 -97 -100 -149 17 -38 56 -57 140 -67 42 -5
93 -12 112 -15 l35 -5 -24 -19 c-28 -23 -59 -24 -89 -4 -16 12 -42 15 -102 13
l-80 -3 18 -35 c12 -23 35 -43 68 -60 42 -22 62 -25 144 -25 76 0 103 5 135
21 80 42 111 132 59 173 -33 26 -77 38 -176 46 -43 4 -78 10 -78 14 0 31 72
42 106 16 13 -10 44 -14 97 -15 64 0 77 3 77 16 0 27 -72 91 -115 103 -55 15
-170 13 -227 -5z"/>
<path d="M3292 2272 c-64 -23 -89 -45 -113 -97 -36 -77 -13 -179 49 -223 48
-35 146 -55 230 -48 152 13 222 73 222 192 0 78 -33 134 -96 165 -66 32 -217
37 -292 11z m182 -92 c70 -26 69 -137 -2 -167 -109 -46 -204 67 -123 148 31
31 76 38 125 19z"/>
<path d="M3848 2280 c-74 -22 -118 -72 -118 -132 0 -61 48 -86 177 -95 85 -6
110 -14 99 -31 -12 -20 -66 -25 -91 -8 -17 11 -48 16 -105 16 -95 0 -102 -11
-42 -70 45 -45 123 -66 219 -57 109 11 176 54 189 123 13 71 -44 105 -204 119
-77 7 -95 17 -63 34 28 15 64 14 87 -4 13 -10 44 -14 97 -15 72 0 77 1 77 21
0 32 -62 85 -114 98 -51 12 -167 13 -208 1z"/>
<path d="M1310 2235 l0 -45 75 0 75 0 0 -140 0 -140 75 0 75 0 0 140 0 140 75
0 75 0 0 45 0 45 -225 0 -225 0 0 -45z"/>
<path d="M1800 2162 c0 -150 18 -193 95 -232 43 -22 63 -25 146 -25 82 0 102
4 144 25 74 38 89 76 94 228 l3 122 -81 0 -81 0 0 -114 c0 -130 -10 -153 -71
-162 -28 -5 -41 -1 -63 17 -26 24 -27 26 -27 142 l0 117 -79 0 -80 0 0 -118z"/>
<path d="M2340 2095 l0 -185 168 0 c239 0 313 21 355 101 14 26 17 50 14 99
-5 74 -16 97 -61 128 -49 33 -108 41 -298 42 l-178 0 0 -185z m330 82 c37 -19
54 -56 46 -100 -10 -52 -39 -68 -136 -74 l-80 -6 0 97 0 96 73 0 c39 0 83 -6
97 -13z"/>
<path d="M2940 2095 l0 -185 80 0 80 0 0 185 0 185 -80 0 -80 0 0 -185z"/>
</g>
</svg>
